<?xml version="1.0" encoding="UTF-8"?><svg id="Calque_1" xmlns="http://www.w3.org/2000/svg" xmlns:xlink="http://www.w3.org/1999/xlink" viewBox="0 0 537 465.4"><defs><style>.cls-1{fill:url(#Dégradé_sans_nom_7);}</style><linearGradient id="Dégradé_sans_nom_7" x1="268.5" y1="87.88" x2="268.5" y2="372.48" gradientUnits="userSpaceOnUse"><stop offset="0" stop-color="#231d45"/><stop offset=".48" stop-color="#2a2b65"/><stop offset="1" stop-color="#442c75"/></linearGradient></defs><g id="SAJPdM.tif"><path class="cls-1" d="M317.78,308.39c37.25-48.44,104.69-85.97,73.67-157.29-7.94-18.25-26.69-37.39-45.57-44.24-1.56-.57-15.8-4.42-16.66-4.42h-194.49v256.12c0,1.08,1.41,2.7,0,4.4h54.56v-205.95h131.13c.9,0,7.93,3.57,9.57,4.51,16.21,9.28,18.15,29.47,7.14,43.89l-52.79,57.22v-72.17h-54.56v172.51h172.49v-54.57h-84.48Z"/><path class="cls-1" d="M317.78,308.39h84.48v54.57h-172.49v-172.51h54.56v72.17l52.79-57.22c11.01-14.41,9.07-34.61-7.14-43.89-1.64-.94-8.67-4.51-9.57-4.51h-131.13v205.95h-54.56c1.41-1.7,0-3.32,0-4.4V102.44h194.49c.86,0,15.1,3.85,16.66,4.42,18.88,6.85,37.63,25.99,45.57,44.24,31.02,71.32-36.42,108.85-73.67,157.29Z"/></g></svg>