<?xml version="1.0" encoding="UTF-8"?><svg id="Calque_1" xmlns="http://www.w3.org/2000/svg" xmlns:xlink="http://www.w3.org/1999/xlink" viewBox="0 0 633.6 233.13"><defs><style>.cls-1{fill:url(#Dégradé_sans_nom_7);}.cls-2{fill:url(#Dégradé_sans_nom_7-2);}.cls-3{fill:url(#Dégradé_sans_nom_7-4);}.cls-4{fill:url(#Dégradé_sans_nom_7-3);}.cls-5{fill:url(#Dégradé_sans_nom_7-5);}</style><linearGradient id="Dégradé_sans_nom_7" x1="112.15" y1="52.26" x2="111.19" y2="173.45" gradientUnits="userSpaceOnUse"><stop offset="0" stop-color="#231d45"/><stop offset=".48" stop-color="#2a2b65"/><stop offset="1" stop-color="#442c75"/></linearGradient><linearGradient id="Dégradé_sans_nom_7-2" x1="211.72" y1="53.05" x2="210.76" y2="174.24" xlink:href="#Dégradé_sans_nom_7"/><linearGradient id="Dégradé_sans_nom_7-3" x1="305.3" y1="53.79" x2="304.34" y2="174.98" xlink:href="#Dégradé_sans_nom_7"/><linearGradient id="Dégradé_sans_nom_7-4" x1="528.18" y1="55.56" x2="527.21" y2="176.75" xlink:href="#Dégradé_sans_nom_7"/><linearGradient id="Dégradé_sans_nom_7-5" x1="418.49" y1="54.69" x2="417.53" y2="175.88" xlink:href="#Dégradé_sans_nom_7"/></defs><g id="SAJPdM.tif"><path class="cls-1" d="M131.09,145.81c14.69-19.11,41.29-33.91,29.06-62.04-3.13-7.2-10.53-14.75-17.97-17.45-.62-.22-6.23-1.74-6.57-1.74H58.88v101.02c0,.43.56,1.06,0,1.74h21.52v-81.23h51.72c.36,0,3.13,1.41,3.77,1.78,6.39,3.66,7.16,11.63,2.82,17.31l-20.82,22.57v-28.47h-21.52v68.04h68.04v-21.52h-33.32Z"/><path class="cls-1" d="M131.09,145.81h33.32v21.52h-68.04v-68.04h21.52v28.47l20.82-22.57c4.34-5.68,3.58-13.65-2.82-17.31-.65-.37-3.42-1.78-3.77-1.78h-51.72v81.23h-21.52c.56-.67,0-1.31,0-1.74v-101.02h76.71c.34,0,5.95,1.52,6.57,1.74,7.45,2.7,14.84,10.25,17.97,17.45,12.23,28.13-14.37,42.93-29.06,62.04Z"/></g><path class="cls-2" d="M179.31,65.79h22.37v80.89h41.45v20.65h-63.82v-101.54Z"/><path class="cls-4" d="M250.01,116.57c0-8.13,1.36-15.49,4.09-22.09,2.72-6.6,6.53-12.21,11.4-16.85,4.88-4.64,10.66-8.2,17.35-10.69,6.69-2.48,14.01-3.73,21.94-3.73s15.25,1.24,21.94,3.73c6.69,2.49,12.48,6.05,17.35,10.69,4.88,4.64,8.68,10.25,11.4,16.85,2.73,6.6,4.09,13.96,4.09,22.09s-1.36,15.49-4.09,22.09c-2.72,6.6-6.52,12.22-11.4,16.85-4.88,4.64-10.66,8.2-17.35,10.69-6.69,2.48-14.01,3.73-21.94,3.73s-15.25-1.24-21.94-3.73c-6.69-2.49-12.48-6.05-17.35-10.69-4.88-4.64-8.68-10.25-11.4-16.85-2.73-6.6-4.09-13.96-4.09-22.09ZM273.25,116.57c0,4.78.74,9.16,2.22,13.12,1.48,3.97,3.61,7.41,6.38,10.33,2.77,2.92,6.1,5.19,9.97,6.81,3.87,1.63,8.2,2.44,12.98,2.44s9.11-.81,12.98-2.44c3.87-1.62,7.19-3.89,9.97-6.81,2.77-2.92,4.9-6.36,6.38-10.33,1.48-3.97,2.22-8.34,2.22-13.12s-.74-9.04-2.22-13.05-3.61-7.48-6.38-10.4c-2.77-2.92-6.1-5.19-9.97-6.81-3.87-1.62-8.2-2.44-12.98-2.44s-9.11.81-12.98,2.44c-3.87,1.63-7.2,3.9-9.97,6.81-2.77,2.92-4.9,6.38-6.38,10.4-1.48,4.02-2.22,8.37-2.22,13.05Z"/><path class="cls-3" d="M569.91,93.19c-3.2-6.5-7.53-11.78-12.98-15.85-5.45-4.06-11.83-7-19.15-8.82-7.31-1.81-15.04-2.72-23.16-2.72h-33.56v20.65h35.57c4.68,0,9.15.6,13.41,1.79,4.25,1.2,7.96,2.99,11.12,5.38,3.15,2.39,5.67,5.43,7.53,9.11,1.86,3.68,2.8,8.01,2.8,12.98,0,5.74-.93,10.59-2.8,14.56-1.86,3.97-4.42,7.17-7.67,9.61-3.25,2.44-7.1,4.18-11.55,5.23-4.45,1.05-9.25,1.58-14.41,1.58h-11.62v-54.46l-22.37,5.63v69.48h36.57c7.55,0,14.77-1.1,21.66-3.3,6.88-2.2,12.96-5.43,18.21-9.68,5.26-4.25,9.44-9.51,12.55-15.78,3.11-6.26,4.66-13.5,4.66-21.73,0-9.27-1.6-17.16-4.8-23.66Z"/><polygon class="cls-5" points="426.71 65.79 408.2 65.79 364.32 167.34 388.99 167.34 395.98 149.55 404.48 126.89 416.81 95.34 429.29 126.89 414.51 126.89 407.19 145.82 436.89 145.82 445.64 167.34 470.88 167.34 426.71 65.79"/></svg>