<svg xmlns="http://www.w3.org/2000/svg" viewBox="0 0 1600 500">

    <defs>
      <linearGradient id="bg-day_zero" x1="0" y1="0" x2="1" y2="1">
        <stop offset="0%" stop-color="#2e2412"/>
        <stop offset="100%" stop-color="#1c1430"/>
      </linearGradient>
      <linearGradient id="vig-day_zero" x1="0" y1="0" x2="0" y2="1">
        <stop offset="0%" stop-color="rgba(0,0,0,0.25)"/>
        <stop offset="50%" stop-color="rgba(0,0,0,0)"/>
        <stop offset="100%" stop-color="rgba(0,0,0,0.4)"/>
      </linearGradient>
      <radialGradient id="focus-day_zero" cx="70%" cy="45%" r="60%">
        <stop offset="0%" stop-color="rgba(255,255,255,0.05)"/>
        <stop offset="100%" stop-color="rgba(255,255,255,0)"/>
      </radialGradient>
    </defs>
    <rect width="1600" height="500" fill="url(#bg-day_zero)"/>
    <rect width="1600" height="500" fill="url(#focus-day_zero)"/>
  

    <ellipse cx="1200" cy="250" rx="380" ry="260" fill="#FFC24B" opacity="0.10"/>
    <circle cx="1200" cy="250" r="150" fill="none" stroke="#FFC24B" stroke-width="1.5" opacity="0.3"/>
    <circle cx="1200" cy="250" r="190" fill="none" stroke="#FFC24B" stroke-width="1" opacity="0.18"/>
    <g transform="translate(988.41 30.24) scale(1.8952)" fill="#FFC24B" opacity="0.22"><path d="M131.09,145.81c14.69-19.11,41.29-33.91,29.06-62.04-3.13-7.2-10.53-14.75-17.97-17.45-.62-.22-6.23-1.74-6.57-1.74H58.88v101.02c0,.43.56,1.06,0,1.74h21.52v-81.23h51.72c.36,0,3.13,1.41,3.77,1.78,6.39,3.66,7.16,11.63,2.82,17.31l-20.82,22.57v-28.47h-21.52v68.04h68.04v-21.52h-33.32Z"/><path d="M131.09,145.81h33.32v21.52h-68.04v-68.04h21.52v28.47l20.82-22.57c4.34-5.68,3.58-13.65-2.82-17.31-.65-.37-3.42-1.78-3.77-1.78h-51.72v81.23h-21.52c.56-.67,0-1.31,0-1.74v-101.02h76.71c.34,0,5.95,1.52,6.57,1.74,7.45,2.7,14.84,10.25,17.97,17.45,12.23,28.13-14.37,42.93-29.06,62.04Z"/></g>
    <circle cx="1500" cy="340" r="2.7" fill="#FFC24B" opacity="0.37"/><circle cx="935" cy="167" r="2.6" fill="#FFC24B" opacity="0.60"/><circle cx="1417" cy="179" r="1.6" fill="#FFC24B" opacity="0.65"/><circle cx="824" cy="339" r="2.0" fill="#FFC24B" opacity="0.55"/><circle cx="972" cy="270" r="1.0" fill="#FFC24B" opacity="0.48"/><circle cx="1002" cy="43" r="1.9" fill="#FFC24B" opacity="0.38"/><circle cx="1532" cy="416" r="2.1" fill="#FFC24B" opacity="0.38"/><circle cx="884" cy="403" r="1.3" fill="#FFC24B" opacity="0.62"/><circle cx="1218" cy="171" r="2.5" fill="#FFC24B" opacity="0.31"/><circle cx="793" cy="430" r="2.3" fill="#FFC24B" opacity="0.69"/><circle cx="1235" cy="428" r="2.9" fill="#FFC24B" opacity="0.35"/><circle cx="929" cy="424" r="2.9" fill="#FFC24B" opacity="0.77"/><circle cx="872" cy="243" r="2.1" fill="#FFC24B" opacity="0.32"/><circle cx="895" cy="204" r="1.0" fill="#FFC24B" opacity="0.51"/><circle cx="1554" cy="242" r="2.2" fill="#FFC24B" opacity="0.61"/><circle cx="1486" cy="133" r="2.6" fill="#FFC24B" opacity="0.59"/><circle cx="1278" cy="431" r="1.1" fill="#FFC24B" opacity="0.42"/><circle cx="1108" cy="324" r="2.0" fill="#FFC24B" opacity="0.64"/><circle cx="1502" cy="380" r="1.3" fill="#FFC24B" opacity="0.35"/><circle cx="1252" cy="129" r="2.4" fill="#FFC24B" opacity="0.43"/><circle cx="1009" cy="110" r="1.5" fill="#FFC24B" opacity="0.72"/><circle cx="1487" cy="426" r="1.5" fill="#FFC24B" opacity="0.42"/><circle cx="1384" cy="418" r="2.4" fill="#FFC24B" opacity="0.36"/><circle cx="973" cy="301" r="2.0" fill="#FFC24B" opacity="0.67"/><circle cx="1156" cy="129" r="2.5" fill="#FFC24B" opacity="0.63"/><circle cx="1389" cy="319" r="2.2" fill="#FFC24B" opacity="0.56"/><circle cx="1566" cy="336" r="2.8" fill="#FFC24B" opacity="0.32"/><circle cx="1078" cy="190" r="1.6" fill="#FFC24B" opacity="0.33"/><circle cx="985" cy="110" r="1.3" fill="#FFC24B" opacity="0.34"/><circle cx="805" cy="75" r="1.4" fill="#FFC24B" opacity="0.50"/><circle cx="968" cy="49" r="2.2" fill="#FFC24B" opacity="0.35"/><circle cx="1589" cy="73" r="1.0" fill="#FFC24B" opacity="0.55"/><circle cx="958" cy="219" r="3.0" fill="#FFC24B" opacity="0.56"/><circle cx="1393" cy="406" r="1.6" fill="#FFC24B" opacity="0.51"/><circle cx="1217" cy="66" r="2.7" fill="#FFC24B" opacity="0.52"/><circle cx="890" cy="208" r="3.0" fill="#FFC24B" opacity="0.32"/><circle cx="1221" cy="280" r="1.2" fill="#FFC24B" opacity="0.65"/><circle cx="1285" cy="371" r="1.5" fill="#FFC24B" opacity="0.59"/><circle cx="1168" cy="321" r="2.6" fill="#FFC24B" opacity="0.62"/><circle cx="1016" cy="372" r="2.3" fill="#FFC24B" opacity="0.61"/>
  
<rect width="1600" height="500" fill="url(#vig-day_zero)"/>
</svg>
