<svg xmlns="http://www.w3.org/2000/svg" viewBox="0 0 1600 500">

    <defs>
      <linearGradient id="bg-indie_constellation" x1="0" y1="0" x2="1" y2="1">
        <stop offset="0%" stop-color="#1a2340"/>
        <stop offset="100%" stop-color="#0e1128"/>
      </linearGradient>
      <linearGradient id="vig-indie_constellation" x1="0" y1="0" x2="0" y2="1">
        <stop offset="0%" stop-color="rgba(0,0,0,0.25)"/>
        <stop offset="50%" stop-color="rgba(0,0,0,0)"/>
        <stop offset="100%" stop-color="rgba(0,0,0,0.4)"/>
      </linearGradient>
      <radialGradient id="focus-indie_constellation" cx="70%" cy="45%" r="60%">
        <stop offset="0%" stop-color="rgba(255,255,255,0.05)"/>
        <stop offset="100%" stop-color="rgba(255,255,255,0)"/>
      </radialGradient>
    </defs>
    <rect width="1600" height="500" fill="url(#bg-indie_constellation)"/>
    <rect width="1600" height="500" fill="url(#focus-indie_constellation)"/>
  
<line x1="1425" y1="404" x2="1001" y2="268" stroke="#FFC24B" stroke-width="1" opacity="0.35"/><line x1="1282" y1="300" x2="941" y2="151" stroke="#FFC24B" stroke-width="1" opacity="0.35"/><line x1="1458" y1="346" x2="979" y2="188" stroke="#FFC24B" stroke-width="1" opacity="0.35"/><line x1="979" y1="188" x2="1004" y2="358" stroke="#FFC24B" stroke-width="1" opacity="0.35"/><line x1="1082" y1="279" x2="1358" y2="179" stroke="#FFC24B" stroke-width="1" opacity="0.35"/><circle cx="1425" cy="404" r="3" fill="#FFC24B" opacity="0.8"/><circle cx="1001" cy="268" r="3" fill="#FFC24B" opacity="0.8"/><circle cx="1282" cy="300" r="3" fill="#FFC24B" opacity="0.8"/><circle cx="941" cy="151" r="3" fill="#FFC24B" opacity="0.8"/><circle cx="1458" cy="346" r="3" fill="#FFC24B" opacity="0.8"/><circle cx="979" cy="188" r="3" fill="#FFC24B" opacity="0.8"/><circle cx="1004" cy="358" r="3" fill="#FFC24B" opacity="0.8"/><circle cx="1082" cy="279" r="3" fill="#FFC24B" opacity="0.8"/><circle cx="1358" cy="179" r="3" fill="#FFC24B" opacity="0.8"/><circle cx="822" cy="459" r="2.9" fill="#e8e2ff" opacity="0.72"/><circle cx="999" cy="56" r="1.5" fill="#e8e2ff" opacity="0.48"/><circle cx="1361" cy="330" r="2.3" fill="#e8e2ff" opacity="0.50"/><circle cx="1269" cy="250" r="2.0" fill="#e8e2ff" opacity="0.51"/><circle cx="1089" cy="215" r="2.1" fill="#e8e2ff" opacity="0.67"/><circle cx="1251" cy="189" r="2.9" fill="#e8e2ff" opacity="0.51"/><circle cx="1022" cy="213" r="1.7" fill="#e8e2ff" opacity="0.72"/><circle cx="1241" cy="359" r="1.7" fill="#e8e2ff" opacity="0.73"/><circle cx="827" cy="126" r="2.3" fill="#e8e2ff" opacity="0.68"/><circle cx="1500" cy="206" r="1.3" fill="#e8e2ff" opacity="0.69"/><circle cx="1173" cy="348" r="1.6" fill="#e8e2ff" opacity="0.49"/><circle cx="1504" cy="420" r="1.9" fill="#e8e2ff" opacity="0.32"/><circle cx="1569" cy="91" r="2.2" fill="#e8e2ff" opacity="0.75"/><circle cx="1452" cy="41" r="1.3" fill="#e8e2ff" opacity="0.79"/><circle cx="1300" cy="92" r="3.0" fill="#e8e2ff" opacity="0.78"/><circle cx="945" cy="147" r="1.7" fill="#e8e2ff" opacity="0.74"/><circle cx="943" cy="138" r="2.0" fill="#e8e2ff" opacity="0.45"/><circle cx="780" cy="262" r="2.8" fill="#e8e2ff" opacity="0.38"/><circle cx="1045" cy="234" r="1.1" fill="#e8e2ff" opacity="0.49"/><circle cx="1064" cy="80" r="1.1" fill="#e8e2ff" opacity="0.33"/><circle cx="1363" cy="370" r="2.9" fill="#e8e2ff" opacity="0.47"/><circle cx="1585" cy="212" r="1.8" fill="#e8e2ff" opacity="0.33"/><circle cx="1531" cy="146" r="1.9" fill="#e8e2ff" opacity="0.74"/><circle cx="1064" cy="275" r="2.4" fill="#e8e2ff" opacity="0.38"/><circle cx="1434" cy="362" r="1.0" fill="#e8e2ff" opacity="0.60"/>
<rect width="1600" height="500" fill="url(#vig-indie_constellation)"/>
</svg>
