<svg xmlns="http://www.w3.org/2000/svg" viewBox="0 0 1600 500">

    <defs>
      <linearGradient id="bg-infinite_library" x1="0" y1="0" x2="1" y2="1">
        <stop offset="0%" stop-color="#2a1c40"/>
        <stop offset="100%" stop-color="#140f28"/>
      </linearGradient>
      <linearGradient id="vig-infinite_library" x1="0" y1="0" x2="0" y2="1">
        <stop offset="0%" stop-color="rgba(0,0,0,0.25)"/>
        <stop offset="50%" stop-color="rgba(0,0,0,0)"/>
        <stop offset="100%" stop-color="rgba(0,0,0,0.4)"/>
      </linearGradient>
      <radialGradient id="focus-infinite_library" cx="70%" cy="45%" r="60%">
        <stop offset="0%" stop-color="rgba(255,255,255,0.05)"/>
        <stop offset="100%" stop-color="rgba(255,255,255,0)"/>
      </radialGradient>
    </defs>
    <rect width="1600" height="500" fill="url(#bg-infinite_library)"/>
    <rect width="1600" height="500" fill="url(#focus-infinite_library)"/>
  
<rect x="830" y="110" width="720" height="7" fill="#FFC24B" opacity="0.4"/><rect x="840" y="72" width="12" height="36" fill="#FFC24B" opacity="0.22"/><rect x="930" y="72" width="12" height="36" fill="#FFC24B" opacity="0.3"/><rect x="1020" y="72" width="12" height="36" fill="#FFC24B" opacity="0.38"/><rect x="1110" y="72" width="12" height="36" fill="#FFC24B" opacity="0.22"/><rect x="1200" y="72" width="12" height="36" fill="#FFC24B" opacity="0.3"/><rect x="1290" y="72" width="12" height="36" fill="#FFC24B" opacity="0.38"/><rect x="1380" y="72" width="12" height="36" fill="#FFC24B" opacity="0.22"/><rect x="1470" y="72" width="12" height="36" fill="#FFC24B" opacity="0.3"/><rect x="885" y="168" width="665" height="7" fill="#FFC24B" opacity="0.37"/><rect x="895" y="130" width="12" height="36" fill="#FFC24B" opacity="0.22"/><rect x="990" y="130" width="12" height="36" fill="#FFC24B" opacity="0.3"/><rect x="1085" y="130" width="12" height="36" fill="#FFC24B" opacity="0.38"/><rect x="1180" y="130" width="12" height="36" fill="#FFC24B" opacity="0.22"/><rect x="1275" y="130" width="12" height="36" fill="#FFC24B" opacity="0.3"/><rect x="1370" y="130" width="12" height="36" fill="#FFC24B" opacity="0.38"/><rect x="1465" y="130" width="12" height="36" fill="#FFC24B" opacity="0.22"/><rect x="940" y="226" width="610" height="7" fill="#FFC24B" opacity="0.34"/><rect x="950" y="188" width="12" height="36" fill="#FFC24B" opacity="0.22"/><rect x="1051.6666666666667" y="188" width="12" height="36" fill="#FFC24B" opacity="0.3"/><rect x="1153.3333333333333" y="188" width="12" height="36" fill="#FFC24B" opacity="0.38"/><rect x="1255" y="188" width="12" height="36" fill="#FFC24B" opacity="0.22"/><rect x="1356.6666666666667" y="188" width="12" height="36" fill="#FFC24B" opacity="0.3"/><rect x="1458.3333333333335" y="188" width="12" height="36" fill="#FFC24B" opacity="0.38"/><rect x="995" y="284" width="555" height="7" fill="#FFC24B" opacity="0.31000000000000005"/><rect x="1005" y="246" width="12" height="36" fill="#FFC24B" opacity="0.22"/><rect x="1116" y="246" width="12" height="36" fill="#FFC24B" opacity="0.3"/><rect x="1227" y="246" width="12" height="36" fill="#FFC24B" opacity="0.38"/><rect x="1338" y="246" width="12" height="36" fill="#FFC24B" opacity="0.22"/><rect x="1449" y="246" width="12" height="36" fill="#FFC24B" opacity="0.3"/><rect x="1050" y="342" width="500" height="7" fill="#FFC24B" opacity="0.28"/><rect x="1060" y="304" width="12" height="36" fill="#FFC24B" opacity="0.22"/><rect x="1185" y="304" width="12" height="36" fill="#FFC24B" opacity="0.3"/><rect x="1310" y="304" width="12" height="36" fill="#FFC24B" opacity="0.38"/><rect x="1435" y="304" width="12" height="36" fill="#FFC24B" opacity="0.22"/><rect x="1105" y="400" width="445" height="7" fill="#FFC24B" opacity="0.25"/><rect x="1115" y="362" width="12" height="36" fill="#FFC24B" opacity="0.22"/><rect x="1263.3333333333333" y="362" width="12" height="36" fill="#FFC24B" opacity="0.3"/><rect x="1411.6666666666667" y="362" width="12" height="36" fill="#FFC24B" opacity="0.38"/><ellipse cx="1250" cy="260" rx="260" ry="180" fill="#FFC24B" opacity="0.05"/>
<rect width="1600" height="500" fill="url(#vig-infinite_library)"/>
</svg>
