<svg xmlns="http://www.w3.org/2000/svg" viewBox="0 0 1600 500">

    <defs>
      <linearGradient id="bg-pixel_nebula" x1="0" y1="0" x2="1" y2="1">
        <stop offset="0%" stop-color="#1a2340"/>
        <stop offset="100%" stop-color="#0e1128"/>
      </linearGradient>
      <linearGradient id="vig-pixel_nebula" x1="0" y1="0" x2="0" y2="1">
        <stop offset="0%" stop-color="rgba(0,0,0,0.25)"/>
        <stop offset="50%" stop-color="rgba(0,0,0,0)"/>
        <stop offset="100%" stop-color="rgba(0,0,0,0.4)"/>
      </linearGradient>
      <radialGradient id="focus-pixel_nebula" cx="70%" cy="45%" r="60%">
        <stop offset="0%" stop-color="rgba(255,255,255,0.05)"/>
        <stop offset="100%" stop-color="rgba(255,255,255,0)"/>
      </radialGradient>
    </defs>
    <rect width="1600" height="500" fill="url(#bg-pixel_nebula)"/>
    <rect width="1600" height="500" fill="url(#focus-pixel_nebula)"/>
  

    <ellipse cx="1200" cy="260" rx="260" ry="150" fill="#EC4899" opacity="0.10"/>
    <ellipse cx="1300" cy="220" rx="160" ry="100" fill="#3B82F6" opacity="0.10"/>
    <rect x="977" y="433" width="7.2" height="7.2" fill="#EC4899" opacity="0.64"/><rect x="1250" y="258" width="5.7" height="5.7" fill="#EC4899" opacity="0.64"/><rect x="1165" y="92" width="6.1" height="6.1" fill="#EC4899" opacity="0.31"/><rect x="1403" y="395" width="6.5" height="6.5" fill="#EC4899" opacity="0.35"/><rect x="1358" y="402" width="4.7" height="4.7" fill="#EC4899" opacity="0.69"/><rect x="1465" y="448" width="4.7" height="4.7" fill="#EC4899" opacity="0.48"/><rect x="1140" y="389" width="5.6" height="5.6" fill="#EC4899" opacity="0.32"/><rect x="1310" y="390" width="4.7" height="4.7" fill="#EC4899" opacity="0.45"/><rect x="1343" y="323" width="3.6" height="3.6" fill="#EC4899" opacity="0.62"/><rect x="1189" y="274" width="7.8" height="7.8" fill="#EC4899" opacity="0.39"/><rect x="906" y="83" width="3.9" height="3.9" fill="#EC4899" opacity="0.75"/><rect x="1199" y="415" width="6.3" height="6.3" fill="#EC4899" opacity="0.58"/><rect x="1348" y="330" width="6.5" height="6.5" fill="#EC4899" opacity="0.38"/><rect x="1147" y="181" width="5.7" height="5.7" fill="#EC4899" opacity="0.42"/><rect x="1432" y="165" width="6.0" height="6.0" fill="#EC4899" opacity="0.69"/><rect x="1419" y="417" width="5.0" height="5.0" fill="#EC4899" opacity="0.63"/><rect x="1232" y="123" width="3.4" height="3.4" fill="#EC4899" opacity="0.79"/><rect x="1244" y="273" width="6.1" height="6.1" fill="#EC4899" opacity="0.77"/>
    <circle cx="1094" cy="439" r="2.2" fill="#e8e2ff" opacity="0.79"/><circle cx="1009" cy="417" r="2.4" fill="#e8e2ff" opacity="0.72"/><circle cx="1009" cy="46" r="1.2" fill="#e8e2ff" opacity="0.36"/><circle cx="1025" cy="254" r="2.8" fill="#e8e2ff" opacity="0.77"/><circle cx="1137" cy="40" r="1.8" fill="#e8e2ff" opacity="0.44"/><circle cx="1483" cy="68" r="2.0" fill="#e8e2ff" opacity="0.74"/><circle cx="1105" cy="240" r="1.9" fill="#e8e2ff" opacity="0.67"/><circle cx="1325" cy="68" r="2.2" fill="#e8e2ff" opacity="0.52"/><circle cx="861" cy="168" r="1.5" fill="#e8e2ff" opacity="0.76"/><circle cx="1065" cy="257" r="1.0" fill="#e8e2ff" opacity="0.34"/><circle cx="1306" cy="359" r="2.9" fill="#e8e2ff" opacity="0.31"/><circle cx="1276" cy="206" r="1.2" fill="#e8e2ff" opacity="0.76"/><circle cx="1441" cy="165" r="1.3" fill="#e8e2ff" opacity="0.60"/><circle cx="812" cy="356" r="1.4" fill="#e8e2ff" opacity="0.64"/><circle cx="862" cy="42" r="2.4" fill="#e8e2ff" opacity="0.58"/><circle cx="1165" cy="244" r="2.3" fill="#e8e2ff" opacity="0.78"/><circle cx="1178" cy="336" r="2.9" fill="#e8e2ff" opacity="0.33"/><circle cx="951" cy="375" r="2.4" fill="#e8e2ff" opacity="0.55"/><circle cx="1570" cy="355" r="1.1" fill="#e8e2ff" opacity="0.72"/><circle cx="1336" cy="162" r="2.7" fill="#e8e2ff" opacity="0.73"/><circle cx="1277" cy="226" r="2.5" fill="#e8e2ff" opacity="0.50"/><circle cx="1590" cy="356" r="1.2" fill="#e8e2ff" opacity="0.76"/>
  
<rect width="1600" height="500" fill="url(#vig-pixel_nebula)"/>
</svg>
