<svg xmlns="http://www.w3.org/2000/svg" viewBox="0 0 1600 500">

    <defs>
      <linearGradient id="bg-rift_horizon" x1="0" y1="0" x2="1" y2="1">
        <stop offset="0%" stop-color="#2a1c40"/>
        <stop offset="100%" stop-color="#140f28"/>
      </linearGradient>
      <linearGradient id="vig-rift_horizon" x1="0" y1="0" x2="0" y2="1">
        <stop offset="0%" stop-color="rgba(0,0,0,0.25)"/>
        <stop offset="50%" stop-color="rgba(0,0,0,0)"/>
        <stop offset="100%" stop-color="rgba(0,0,0,0.4)"/>
      </linearGradient>
      <radialGradient id="focus-rift_horizon" cx="70%" cy="45%" r="60%">
        <stop offset="0%" stop-color="rgba(255,255,255,0.05)"/>
        <stop offset="100%" stop-color="rgba(255,255,255,0)"/>
      </radialGradient>
    </defs>
    <rect width="1600" height="500" fill="url(#bg-rift_horizon)"/>
    <rect width="1600" height="500" fill="url(#focus-rift_horizon)"/>
  

    <path d="M1180 90 L1210 220 L1320 240 L1200 260 L1230 400 L1140 250 L1020 260 L1160 220 Z" fill="#EC4899" opacity="0.4"/>
    <path d="M1180 90 L1210 220 L1320 240 L1200 260 L1230 400" stroke="#22D3EE" stroke-width="2" fill="none" opacity="0.6"/>
    <ellipse cx="1190" cy="250" rx="200" ry="140" fill="#EC4899" opacity="0.12"/>
    <circle cx="1093" cy="45" r="2.4" fill="#22D3EE" opacity="0.37"/><circle cx="1578" cy="215" r="1.8" fill="#22D3EE" opacity="0.57"/><circle cx="1254" cy="285" r="1.3" fill="#22D3EE" opacity="0.55"/><circle cx="890" cy="109" r="2.4" fill="#22D3EE" opacity="0.42"/><circle cx="893" cy="274" r="2.1" fill="#22D3EE" opacity="0.41"/><circle cx="1227" cy="229" r="1.2" fill="#22D3EE" opacity="0.77"/><circle cx="1075" cy="64" r="1.6" fill="#22D3EE" opacity="0.57"/><circle cx="1264" cy="457" r="2.2" fill="#22D3EE" opacity="0.79"/><circle cx="1171" cy="391" r="2.6" fill="#22D3EE" opacity="0.31"/><circle cx="1400" cy="190" r="1.4" fill="#22D3EE" opacity="0.64"/><circle cx="940" cy="204" r="1.2" fill="#22D3EE" opacity="0.55"/><circle cx="1588" cy="211" r="2.8" fill="#22D3EE" opacity="0.50"/><circle cx="863" cy="347" r="1.2" fill="#22D3EE" opacity="0.47"/><circle cx="1172" cy="216" r="2.6" fill="#22D3EE" opacity="0.50"/><circle cx="1477" cy="389" r="1.1" fill="#22D3EE" opacity="0.68"/><circle cx="1465" cy="395" r="2.2" fill="#22D3EE" opacity="0.40"/><circle cx="959" cy="352" r="1.7" fill="#22D3EE" opacity="0.49"/><circle cx="1339" cy="365" r="3.0" fill="#22D3EE" opacity="0.66"/><circle cx="1456" cy="194" r="1.8" fill="#22D3EE" opacity="0.75"/><circle cx="1552" cy="53" r="1.9" fill="#22D3EE" opacity="0.36"/><circle cx="922" cy="418" r="1.6" fill="#22D3EE" opacity="0.80"/><circle cx="1336" cy="444" r="1.3" fill="#22D3EE" opacity="0.36"/><circle cx="1200" cy="438" r="2.4" fill="#22D3EE" opacity="0.42"/><circle cx="1478" cy="409" r="2.4" fill="#22D3EE" opacity="0.41"/>
  
<rect width="1600" height="500" fill="url(#vig-rift_horizon)"/>
</svg>
