<svg xmlns="http://www.w3.org/2000/svg" viewBox="0 0 256 256">

    <defs>
      <radialGradient id="bg-celestial_engineer" cx="42%" cy="38%" r="75%">
        <stop offset="0%" stop-color="#4a1f4e"/>
        <stop offset="100%" stop-color="#221230"/>
      </radialGradient>
      <linearGradient id="rim-celestial_engineer" x1="0" y1="0" x2="1" y2="1">
        <stop offset="0%" stop-color="rgba(255,255,255,0.35)"/>
        <stop offset="100%" stop-color="rgba(255,255,255,0)"/>
      </linearGradient>
    </defs>
    <circle cx="128" cy="128" r="126" fill="url(#bg-celestial_engineer)"/>
    <circle cx="128" cy="128" r="126" fill="none" stroke="rgba(255,255,255,0.14)" stroke-width="2"/>
    <path d="M40 60 A100 100 0 0 1 196 46" stroke="url(#rim-celestial_engineer)" stroke-width="10" fill="none" stroke-linecap="round" opacity="0.5"/>
    <ellipse cx="128" cy="222" rx="70" ry="16" fill="rgba(0,0,0,0.35)"/>
  
<path d="M104 168 L104 196 Q128 210 152 196 L152 168 Z" fill="#3a1f42"/><path d="M80 140 Q76 66 128 62 Q180 66 176 140 L176 152 Q128 168 80 152 Z" fill="#2f2050"/><circle cx="128" cy="126" r="20" fill="none" stroke="#FFC24B" stroke-width="4"/>
    <circle cx="128" cy="126" r="20" fill="none" stroke="#FFC24B" stroke-width="4" stroke-dasharray="4 6" transform="rotate(20 128 126)"/>
    <circle cx="128" cy="126" r="7" fill="#FFC24B"/>
</svg>
