<svg xmlns="http://www.w3.org/2000/svg" viewBox="0 0 256 256">

    <defs>
      <radialGradient id="bg-cosmic_alchemist" cx="42%" cy="38%" r="75%">
        <stop offset="0%" stop-color="#4a1f4e"/>
        <stop offset="100%" stop-color="#221230"/>
      </radialGradient>
      <linearGradient id="rim-cosmic_alchemist" x1="0" y1="0" x2="1" y2="1">
        <stop offset="0%" stop-color="rgba(255,255,255,0.35)"/>
        <stop offset="100%" stop-color="rgba(255,255,255,0)"/>
      </linearGradient>
    </defs>
    <circle cx="128" cy="128" r="126" fill="url(#bg-cosmic_alchemist)"/>
    <circle cx="128" cy="128" r="126" fill="none" stroke="rgba(255,255,255,0.14)" stroke-width="2"/>
    <path d="M40 60 A100 100 0 0 1 196 46" stroke="url(#rim-cosmic_alchemist)" stroke-width="10" fill="none" stroke-linecap="round" opacity="0.5"/>
    <ellipse cx="128" cy="222" rx="70" ry="16" fill="rgba(0,0,0,0.35)"/>
  
<path d="M104 168 L104 196 Q128 210 152 196 L152 168 Z" fill="#3a1f42"/><path d="M76 150 Q72 78 128 66 Q184 78 180 150 Q180 178 128 182 Q76 178 76 150 Z" fill="#3a2352"/>
          <path d="M78 148 Q75 84 128 72 Q181 84 178 148" fill="none" stroke="#FFC24B" stroke-width="3" opacity="0.6"/>
    <circle cx="176" cy="96" r="12" fill="#FFC24B" opacity="0.85"/><circle cx="176" cy="96" r="18" fill="none" stroke="#FFC24B" stroke-width="2" opacity="0.4"/>
    <circle cx="112" cy="132" r="4" fill="#FFC24B"/><circle cx="144" cy="132" r="4" fill="#FFC24B"/>
</svg>
