<svg xmlns="http://www.w3.org/2000/svg" viewBox="0 0 256 256">

    <defs>
      <radialGradient id="bg-crystal_ranger" cx="42%" cy="38%" r="75%">
        <stop offset="0%" stop-color="#1c3a5e"/>
        <stop offset="100%" stop-color="#161233"/>
      </radialGradient>
      <linearGradient id="rim-crystal_ranger" x1="0" y1="0" x2="1" y2="1">
        <stop offset="0%" stop-color="rgba(255,255,255,0.35)"/>
        <stop offset="100%" stop-color="rgba(255,255,255,0)"/>
      </linearGradient>
    </defs>
    <circle cx="128" cy="128" r="126" fill="url(#bg-crystal_ranger)"/>
    <circle cx="128" cy="128" r="126" fill="none" stroke="rgba(255,255,255,0.14)" stroke-width="2"/>
    <path d="M40 60 A100 100 0 0 1 196 46" stroke="url(#rim-crystal_ranger)" stroke-width="10" fill="none" stroke-linecap="round" opacity="0.5"/>
    <ellipse cx="128" cy="222" rx="70" ry="16" fill="rgba(0,0,0,0.35)"/>
  
<path d="M104 168 L104 196 Q128 210 152 196 L152 168 Z" fill="#213048"/><circle cx="128" cy="128" r="52" fill="#3a2f66"/><circle cx="128" cy="128" r="52" fill="none" stroke="#241f42" stroke-width="2"/><path d="M75 70 L82 52 L89 70 Z" fill="#22D3EE"/><path d="M98 70 L105 50 L112 70 Z" fill="#22D3EE"/><path d="M121 70 L128 36 L135 70 Z" fill="#22D3EE"/><path d="M144 70 L151 50 L158 70 Z" fill="#22D3EE"/><path d="M167 70 L174 52 L181 70 Z" fill="#22D3EE"/><circle cx="110" cy="128" r="6" fill="#22D3EE"/><circle cx="146" cy="128" r="6" fill="#22D3EE"/>
</svg>
