<svg xmlns="http://www.w3.org/2000/svg" viewBox="0 0 256 256">

    <defs>
      <radialGradient id="bg-indigo_cat" cx="42%" cy="38%" r="75%">
        <stop offset="0%" stop-color="#2b2354"/>
        <stop offset="100%" stop-color="#1a1533"/>
      </radialGradient>
      <linearGradient id="rim-indigo_cat" x1="0" y1="0" x2="1" y2="1">
        <stop offset="0%" stop-color="rgba(255,255,255,0.35)"/>
        <stop offset="100%" stop-color="rgba(255,255,255,0)"/>
      </linearGradient>
    </defs>
    <circle cx="128" cy="128" r="126" fill="url(#bg-indigo_cat)"/>
    <circle cx="128" cy="128" r="126" fill="none" stroke="rgba(255,255,255,0.14)" stroke-width="2"/>
    <path d="M40 60 A100 100 0 0 1 196 46" stroke="url(#rim-indigo_cat)" stroke-width="10" fill="none" stroke-linecap="round" opacity="0.5"/>
    <ellipse cx="128" cy="222" rx="70" ry="16" fill="rgba(0,0,0,0.35)"/>
  
<path d="M104 168 L104 196 Q128 210 152 196 L152 168 Z" fill="#2e2650"/><circle cx="128" cy="128" r="52" fill="#3a2f66"/><circle cx="128" cy="128" r="52" fill="none" stroke="#241f42" stroke-width="2"/><path d="M82 92 L100 60 L116 96 Z" fill="#4a3d7a"/>
          <path d="M174 92 L156 60 L140 96 Z" fill="#4a3d7a"/><circle cx="111" cy="128" r="5" fill="#22D3EE"/><circle cx="145" cy="128" r="5" fill="#22D3EE"/>
</svg>
