<svg xmlns="http://www.w3.org/2000/svg" viewBox="0 0 256 256">

    <defs>
      <radialGradient id="bg-lunar_owl" cx="42%" cy="38%" r="75%">
        <stop offset="0%" stop-color="#2b2354"/>
        <stop offset="100%" stop-color="#1a1533"/>
      </radialGradient>
      <linearGradient id="rim-lunar_owl" x1="0" y1="0" x2="1" y2="1">
        <stop offset="0%" stop-color="rgba(255,255,255,0.35)"/>
        <stop offset="100%" stop-color="rgba(255,255,255,0)"/>
      </linearGradient>
    </defs>
    <circle cx="128" cy="128" r="126" fill="url(#bg-lunar_owl)"/>
    <circle cx="128" cy="128" r="126" fill="none" stroke="rgba(255,255,255,0.14)" stroke-width="2"/>
    <path d="M40 60 A100 100 0 0 1 196 46" stroke="url(#rim-lunar_owl)" stroke-width="10" fill="none" stroke-linecap="round" opacity="0.5"/>
    <ellipse cx="128" cy="222" rx="70" ry="16" fill="rgba(0,0,0,0.35)"/>
  
<path d="M104 168 L104 196 Q128 210 152 196 L152 168 Z" fill="#2e2650"/><circle cx="128" cy="128" r="52" fill="#3a2f66"/><circle cx="128" cy="128" r="52" fill="none" stroke="#241f42" stroke-width="2"/><circle cx="88" cy="88" r="16" fill="#4a3d7a"/><circle cx="168" cy="88" r="16" fill="#4a3d7a"/><circle cx="103" cy="128" r="17" fill="none" stroke="#8ea9e8" stroke-width="4"/>
          <circle cx="153" cy="128" r="17" fill="none" stroke="#8ea9e8" stroke-width="4"/>
          <circle cx="103" cy="128" r="8" fill="#3B82F6"/><circle cx="153" cy="128" r="8" fill="#3B82F6"/>
          <line x1="120" y1="128" x2="136" y2="128" stroke="#8ea9e8" stroke-width="4"/>
</svg>
