<svg xmlns="http://www.w3.org/2000/svg" viewBox="0 0 256 256">

    <defs>
      <radialGradient id="bg-neon_raven" cx="42%" cy="38%" r="75%">
        <stop offset="0%" stop-color="#1c3a5e"/>
        <stop offset="100%" stop-color="#161233"/>
      </radialGradient>
      <linearGradient id="rim-neon_raven" x1="0" y1="0" x2="1" y2="1">
        <stop offset="0%" stop-color="rgba(255,255,255,0.35)"/>
        <stop offset="100%" stop-color="rgba(255,255,255,0)"/>
      </linearGradient>
    </defs>
    <circle cx="128" cy="128" r="126" fill="url(#bg-neon_raven)"/>
    <circle cx="128" cy="128" r="126" fill="none" stroke="rgba(255,255,255,0.14)" stroke-width="2"/>
    <path d="M40 60 A100 100 0 0 1 196 46" stroke="url(#rim-neon_raven)" stroke-width="10" fill="none" stroke-linecap="round" opacity="0.5"/>
    <ellipse cx="128" cy="222" rx="70" ry="16" fill="rgba(0,0,0,0.35)"/>
  
<path d="M104 168 L104 196 Q128 210 152 196 L152 168 Z" fill="#213048"/><circle cx="128" cy="128" r="52" fill="#3a2f66"/><circle cx="128" cy="128" r="52" fill="none" stroke="#241f42" stroke-width="2"/><path d="M128 118 L112 138 L128 134 L144 138 Z" fill="#0f1a2c"/>
    <path d="M84 108 Q70 100 78 90 Q92 98 96 112 Z" fill="#1a2a44"/><path d="M172 108 Q186 100 178 90 Q164 98 160 112 Z" fill="#1a2a44"/>
    <circle cx="112" cy="118" r="4" fill="#EC4899"/><circle cx="144" cy="118" r="4" fill="#EC4899"/>
</svg>
