<svg xmlns="http://www.w3.org/2000/svg" viewBox="0 0 256 256">

    <defs>
      <radialGradient id="bg-nova_sentinel" cx="42%" cy="38%" r="75%">
        <stop offset="0%" stop-color="#4a1f4e"/>
        <stop offset="100%" stop-color="#221230"/>
      </radialGradient>
      <linearGradient id="rim-nova_sentinel" x1="0" y1="0" x2="1" y2="1">
        <stop offset="0%" stop-color="rgba(255,255,255,0.35)"/>
        <stop offset="100%" stop-color="rgba(255,255,255,0)"/>
      </linearGradient>
    </defs>
    <circle cx="128" cy="128" r="126" fill="url(#bg-nova_sentinel)"/>
    <circle cx="128" cy="128" r="126" fill="none" stroke="rgba(255,255,255,0.14)" stroke-width="2"/>
    <path d="M40 60 A100 100 0 0 1 196 46" stroke="url(#rim-nova_sentinel)" stroke-width="10" fill="none" stroke-linecap="round" opacity="0.5"/>
    <ellipse cx="128" cy="222" rx="70" ry="16" fill="rgba(0,0,0,0.35)"/>
  
<path d="M104 168 L104 196 Q128 210 152 196 L152 168 Z" fill="#3a1f42"/><path d="M80 140 Q76 66 128 62 Q180 66 176 140 L176 152 Q128 168 80 152 Z" fill="#2f2050"/>
    <path d="M128 58 L136 90 L128 100 L120 90 Z" fill="#EC4899"/>
    <path d="M176 78 L152 100 L142 112 L160 94 Z" fill="#EC4899"/>
    <path d="M80 78 L104 100 L114 112 L96 94 Z" fill="#EC4899"/>
    <path d="M188 118 L156 122 L156 132 L188 130 Z" fill="#EC4899" opacity="0.85"/>
    <path d="M68 118 L100 122 L100 132 L68 130 Z" fill="#EC4899" opacity="0.85"/>
    <circle cx="128" cy="128" r="10" fill="#EC4899"/><circle cx="128" cy="128" r="5" fill="#1a1030"/>
</svg>
