<svg xmlns="http://www.w3.org/2000/svg" viewBox="0 0 256 256">

    <defs>
      <radialGradient id="bg-pixel_nomad" cx="42%" cy="38%" r="75%">
        <stop offset="0%" stop-color="#2b2354"/>
        <stop offset="100%" stop-color="#1a1533"/>
      </radialGradient>
      <linearGradient id="rim-pixel_nomad" x1="0" y1="0" x2="1" y2="1">
        <stop offset="0%" stop-color="rgba(255,255,255,0.35)"/>
        <stop offset="100%" stop-color="rgba(255,255,255,0)"/>
      </linearGradient>
    </defs>
    <circle cx="128" cy="128" r="126" fill="url(#bg-pixel_nomad)"/>
    <circle cx="128" cy="128" r="126" fill="none" stroke="rgba(255,255,255,0.14)" stroke-width="2"/>
    <path d="M40 60 A100 100 0 0 1 196 46" stroke="url(#rim-pixel_nomad)" stroke-width="10" fill="none" stroke-linecap="round" opacity="0.5"/>
    <ellipse cx="128" cy="222" rx="70" ry="16" fill="rgba(0,0,0,0.35)"/>
  
<path d="M104 168 L104 196 Q128 210 152 196 L152 168 Z" fill="#2e2650"/><rect x="78" y="82" width="100" height="100" rx="6" fill="#3a2f66"/>
    <rect x="78" y="82" width="14" height="14" fill="#FFC24B"/><rect x="164" y="82" width="14" height="14" fill="#FFC24B"/>
    <rect x="92" y="168" width="14" height="14" fill="#FFC24B"/><rect x="122" y="168" width="14" height="14" fill="#FFC24B"/><rect x="152" y="168" width="14" height="14" fill="#FFC24B"/>
    <rect x="78" y="82" width="14" height="100" fill="none"/>
    <circle cx="110" cy="128" r="6" fill="#e8e2ff"/><circle cx="146" cy="128" r="6" fill="#e8e2ff"/>
</svg>
