<svg xmlns="http://www.w3.org/2000/svg" viewBox="0 0 256 256">

    <defs>
      <radialGradient id="bg-rift_walker" cx="42%" cy="38%" r="75%">
        <stop offset="0%" stop-color="#4a1f4e"/>
        <stop offset="100%" stop-color="#221230"/>
      </radialGradient>
      <linearGradient id="rim-rift_walker" x1="0" y1="0" x2="1" y2="1">
        <stop offset="0%" stop-color="rgba(255,255,255,0.35)"/>
        <stop offset="100%" stop-color="rgba(255,255,255,0)"/>
      </linearGradient>
    </defs>
    <circle cx="128" cy="128" r="126" fill="url(#bg-rift_walker)"/>
    <circle cx="128" cy="128" r="126" fill="none" stroke="rgba(255,255,255,0.14)" stroke-width="2"/>
    <path d="M40 60 A100 100 0 0 1 196 46" stroke="url(#rim-rift_walker)" stroke-width="10" fill="none" stroke-linecap="round" opacity="0.5"/>
    <ellipse cx="128" cy="222" rx="70" ry="16" fill="rgba(0,0,0,0.35)"/>
  
<path d="M104 168 L104 196 Q128 210 152 196 L152 168 Z" fill="#3a1f42"/>
    <g transform="translate(-6 -3)" opacity="0.6"><circle cx="128" cy="128" r="52" fill="#3a2f66"/><circle cx="128" cy="128" r="52" fill="none" stroke="#241f42" stroke-width="2"/><circle cx="110" cy="128" r="6" fill="#22D3EE"/><circle cx="146" cy="128" r="6" fill="#22D3EE"/></g>
    <g transform="translate(7 4)" opacity="0.75"><circle cx="128" cy="128" r="52" fill="#3a2f66"/><circle cx="128" cy="128" r="52" fill="none" stroke="#241f42" stroke-width="2"/><circle cx="110" cy="128" r="6" fill="#EC4899"/><circle cx="146" cy="128" r="6" fill="#EC4899"/></g>
    <rect x="76" y="112" width="104" height="6" fill="#0f0c1f" opacity="0.7"/>
    <rect x="70" y="140" width="116" height="4" fill="#0f0c1f" opacity="0.6"/>
</svg>
