<svg xmlns="http://www.w3.org/2000/svg" viewBox="0 0 256 256">

    <defs>
      <radialGradient id="bg-rload_founder" cx="42%" cy="38%" r="75%">
        <stop offset="0%" stop-color="#5a3a12"/>
        <stop offset="100%" stop-color="#241730"/>
      </radialGradient>
      <linearGradient id="rim-rload_founder" x1="0" y1="0" x2="1" y2="1">
        <stop offset="0%" stop-color="rgba(255,255,255,0.35)"/>
        <stop offset="100%" stop-color="rgba(255,255,255,0)"/>
      </linearGradient>
    </defs>
    <circle cx="128" cy="128" r="126" fill="url(#bg-rload_founder)"/>
    <circle cx="128" cy="128" r="126" fill="none" stroke="rgba(255,255,255,0.14)" stroke-width="2"/>
    <path d="M40 60 A100 100 0 0 1 196 46" stroke="url(#rim-rload_founder)" stroke-width="10" fill="none" stroke-linecap="round" opacity="0.5"/>
    <ellipse cx="128" cy="222" rx="70" ry="16" fill="rgba(0,0,0,0.35)"/>
  
<path d="M104 168 L104 196 Q128 210 152 196 L152 168 Z" fill="#4a3712"/><circle cx="128" cy="128" r="52" fill="#3a2f66"/><circle cx="128" cy="128" r="52" fill="none" stroke="#241f42" stroke-width="2"/><path d="M84 150 Q128 168 172 150 L172 168 Q128 186 84 168 Z" fill="#5a4318"/>
    <g transform="translate(79.33 77.46) scale(0.4359)" fill="rgba(255,255,255,0.95)"><path d="M131.09,145.81c14.69-19.11,41.29-33.91,29.06-62.04-3.13-7.2-10.53-14.75-17.97-17.45-.62-.22-6.23-1.74-6.57-1.74H58.88v101.02c0,.43.56,1.06,0,1.74h21.52v-81.23h51.72c.36,0,3.13,1.41,3.77,1.78,6.39,3.66,7.16,11.63,2.82,17.31l-20.82,22.57v-28.47h-21.52v68.04h68.04v-21.52h-33.32Z"/><path d="M131.09,145.81h33.32v21.52h-68.04v-68.04h21.52v28.47l20.82-22.57c4.34-5.68,3.58-13.65-2.82-17.31-.65-.37-3.42-1.78-3.77-1.78h-51.72v81.23h-21.52c.56-.67,0-1.31,0-1.74v-101.02h76.71c.34,0,5.95,1.52,6.57,1.74,7.45,2.7,14.84,10.25,17.97,17.45,12.23,28.13-14.37,42.93-29.06,62.04Z"/></g>
</svg>
