<svg xmlns="http://www.w3.org/2000/svg" viewBox="0 0 256 256">

    <defs>
      <radialGradient id="bg-shadow_navigator" cx="42%" cy="38%" r="75%">
        <stop offset="0%" stop-color="#4a1f4e"/>
        <stop offset="100%" stop-color="#221230"/>
      </radialGradient>
      <linearGradient id="rim-shadow_navigator" x1="0" y1="0" x2="1" y2="1">
        <stop offset="0%" stop-color="rgba(255,255,255,0.35)"/>
        <stop offset="100%" stop-color="rgba(255,255,255,0)"/>
      </linearGradient>
    </defs>
    <circle cx="128" cy="128" r="126" fill="url(#bg-shadow_navigator)"/>
    <circle cx="128" cy="128" r="126" fill="none" stroke="rgba(255,255,255,0.14)" stroke-width="2"/>
    <path d="M40 60 A100 100 0 0 1 196 46" stroke="url(#rim-shadow_navigator)" stroke-width="10" fill="none" stroke-linecap="round" opacity="0.5"/>
    <ellipse cx="128" cy="222" rx="70" ry="16" fill="rgba(0,0,0,0.35)"/>
  
<path d="M104 168 L104 196 Q128 210 152 196 L152 168 Z" fill="#3a1f42"/><path d="M76 150 Q72 78 128 66 Q184 78 180 150 Q180 178 128 182 Q76 178 76 150 Z" fill="#241533"/>
          <path d="M78 148 Q75 84 128 72 Q181 84 178 148" fill="none" stroke="#5a3a6e" stroke-width="3" opacity="0.6"/>
    <path d="M92 160 Q128 178 164 160 L164 172 Q128 190 92 172 Z" fill="#170e22"/>
    <circle cx="128" cy="128" r="22" fill="none" stroke="#FFC24B" stroke-width="3"/>
    <line x1="128" y1="108" x2="128" y2="122" stroke="#FFC24B" stroke-width="3"/>
    <line x1="128" y1="134" x2="128" y2="148" stroke="#FFC24B" stroke-width="3"/>
    <line x1="108" y1="128" x2="122" y2="128" stroke="#FFC24B" stroke-width="3"/>
    <line x1="134" y1="128" x2="148" y2="128" stroke="#FFC24B" stroke-width="3"/>
    <circle cx="128" cy="128" r="4" fill="#FFC24B"/>
</svg>
