<svg xmlns="http://www.w3.org/2000/svg" viewBox="0 0 256 256">

    <defs>
      <radialGradient id="bg-violet_pilot" cx="42%" cy="38%" r="75%">
        <stop offset="0%" stop-color="#2b2354"/>
        <stop offset="100%" stop-color="#1a1533"/>
      </radialGradient>
      <linearGradient id="rim-violet_pilot" x1="0" y1="0" x2="1" y2="1">
        <stop offset="0%" stop-color="rgba(255,255,255,0.35)"/>
        <stop offset="100%" stop-color="rgba(255,255,255,0)"/>
      </linearGradient>
    </defs>
    <circle cx="128" cy="128" r="126" fill="url(#bg-violet_pilot)"/>
    <circle cx="128" cy="128" r="126" fill="none" stroke="rgba(255,255,255,0.14)" stroke-width="2"/>
    <path d="M40 60 A100 100 0 0 1 196 46" stroke="url(#rim-violet_pilot)" stroke-width="10" fill="none" stroke-linecap="round" opacity="0.5"/>
    <ellipse cx="128" cy="222" rx="70" ry="16" fill="rgba(0,0,0,0.35)"/>
  
<path d="M104 168 L104 196 Q128 210 152 196 L152 168 Z" fill="#2e2650"/><path d="M80 140 Q76 66 128 62 Q180 66 176 140 L176 152 Q128 168 80 152 Z" fill="#4a3d7a"/><rect x="86" y="116" width="84" height="24" rx="12" fill="#241f42"/><rect x="86" y="122" width="84" height="8" rx="4" fill="#3B82F6"/>
</svg>
